<svg id="Layer_1" data-name="Layer 1" xmlns="http://www.w3.org/2000/svg" xmlns:xlink="http://www.w3.org/1999/xlink"
    viewBox="0 0 1024 1024" width="2000" height="2000">
    <defs>
        <style>
            .cls-1 {
                fill: #4558a4;
            }

            .cls-2 {
                fill: url(#radial-gradient);
            }

            .cls-3 {
                fill: url(#radial-gradient-2);
            }

            .cls-4 {
                fill: url(#radial-gradient-3);
            }

            .cls-5 {
                fill: url(#linear-gradient);
            }

            .cls-6 {
                fill: url(#radial-gradient-4);
            }

            .cls-7 {
                fill: url(#radial-gradient-5);
            }
        </style>
        <radialGradient id="radial-gradient" cx="548.79" cy="373.84" r="108.32" gradientUnits="userSpaceOnUse">
            <stop offset="0.13" stop-color="#ef5c91" />
            <stop offset="1" stop-color="#e5572e" />
        </radialGradient>
        <radialGradient id="radial-gradient-2" cx="535.16" cy="399.15" r="137.79" xlink:href="#radial-gradient" />
        <radialGradient id="radial-gradient-3" cx="524.45" cy="425.93" r="92.57" xlink:href="#radial-gradient" />
        <linearGradient id="linear-gradient" x1="401.55" y1="392.55" x2="838.22" y2="679.45"
            gradientUnits="userSpaceOnUse">
            <stop offset="0.13" stop-color="#f8b591" />
            <stop offset="1" stop-color="#f26c21" />
        </linearGradient>
        <radialGradient id="radial-gradient-4" cx="502.06" cy="507.71" r="124.75" xlink:href="#radial-gradient" />
        <radialGradient id="radial-gradient-5" cx="528.35" cy="607.99" r="122.04" xlink:href="#radial-gradient" />
    </defs>
    <g
    transform="
    translate(-510 -470)
    scale(2)
    "
    >
    <path class="cls-1"
        d="M616,601c33.44-19.43,55-59.92,52-99.2-.14-1.86-.31-3.88-.59-5.73-3.41-22.39-2.76-45.75,5.35-67.66,5.58-15.08,15.14-27.23,31-31.73,4.82-1.37,10.79-1.59,14,2.27,1.63,2,2.16,4.61,2.33,7.16,1.12,16.89-13.6,28.11-16,44.08a67.53,67.53,0,0,0-.73,10.53,87.22,87.22,0,0,0,4.06,24.43l9.09,30.3,30.17-118.88a39.24,39.24,0,1,0-75.52-21.32l-13.22,47.21-25.31,90.43c-1.39,5-2.82,9.92-4.25,14.88A329.31,329.31,0,0,0,616,601Z" />
    <path class="cls-1"
        d="M470.5,573c2.09,5.82,3.26,12.27,5,18.31,2.42,8.62,5.34,17.13,8.29,25.59.33,1,5.41,11.59,5.41,11.59s-5.15,5.36-9.29,10.39c-4.45,5.39-8.8,10.87-13.49,16.05a64.58,64.58,0,0,1-16.67,13c-12.43,6.81-26.78,9.93-40.9,9.82-27.61-.22-51.94-18-59.82-44.31l-71.61-239c-7.34-24.49,11.13-49.1,36.86-49.1a40.46,40.46,0,0,1,39.14,29.86s51.33,191.65,51.74,192.34c7.69,12.88,17.23-.21,21.18-5.58,6.77-9.2,20.78-11.92,30.82-8.21C465.87,557,467.82,565.56,470.5,573Z" />
    <path
        d="M494.52,361.75a8.43,8.43,0,0,1,7.76,2.62,8.18,8.18,0,0,1,1.32,8.14c-.35.94,1.16,1.35,1.51.41a9.74,9.74,0,0,0-1.72-9.66,10.06,10.06,0,0,0-9.29-3c-1,.18-.57,1.68.42,1.51Z" />
    <path class="cls-2"
        d="M539.85,396.27a9.7,9.7,0,0,0,7.14,5.94,18,18,0,0,1,11.24,7.11c3.67,4.83,5.48,10.89,7.28,16.78s3.75,11.93,7.62,16.59a10.55,10.55,0,0,0,5.64,3.88,5.7,5.7,0,0,0,6.16-2.64c1.65-3.24-.86-6.74-2.66-9.72-5.69-9.39-4.81-21.79-9.13-32A31.29,31.29,0,0,0,557.47,386a31.71,31.71,0,0,0-16.42-2.57,4.87,4.87,0,0,0-3.84,6.82Z" />
    <path class="cls-3"
        d="M531.79,418.44a15.17,15.17,0,0,0,.82,10c4,9.26.35,22.16,5.36,31.35,3.51,6.45,10.93,10.26,13.1,17.36,1.23,4,.55,8.46,1,12.7s2.56,8.83,6.65,9.51c3.75.62,7.47-2.51,9.07-6.16,2.53-5.77,1-12.43-1.67-17.86s-6.53-10.19-9-15.75c-6.45-14.7-2.71-33.67-11.8-46.73-2.1-3-6.41-7.3-9.14-4.73C534.43,409.77,532.87,414.47,531.79,418.44Z" />
    <path class="cls-4"
        d="M508.64,441.15c-3.21,4.49-1.62,15.77.8,20.49s5.84,9.05,6.63,14.39c.45,3.06.43,7,3.21,8.1s5.69-1.8,6.37-4.76c1.62-7.14-4.94-13-6.31-20.06-1.93-9.92,12.81-27.69,3.1-30.13C518,428.06,508.64,441.15,508.64,441.15Z" />
    <path class="cls-5"
        d="M532.08,624.16c0-5.43-2.34-11.15-8.35-13.55-3.53-1.41-7.17-1.77-10.64-.2-8.16,3.69-12.59,8.84-12.49,9-15.5-28.81-20.17-62.7-18.25-95.34l.07-2.1a33.89,33.89,0,0,0,17.2-4.34c5.2-2.75,11.36-12.14,5.52-21.53-4.88-7.85-12.49-10.19-21.16-13.79-.76-12.92-1.67-31.76-6.54-44.16-5.49-14-16.95-22.68-25.35-34.69-14.83-21.17-12.95-43.2,12.16-54.87,16.93-7.87,33.92-2.5,46.44,10.44a76,76,0,0,1,11.68,15.37c2.27,4.12,4.28,8.37,6.26,12.62,1.57,3.36,4.71,7.73,4.1,11.61-.31,2-2.57,3.1-3.77,4.47a15,15,0,0,0-2.74,5.73c-.81,2.85-1.39,5.87-3.18,8.24s-4.58,3.77-7.13,5.34c-4.6,2.83-9.71,6-13,10.21-2.1,2.69-3.86,7-5.14,10.36-2.23,12.28,2.47,19.76,6.11,24,4.22,4.85,1,11,3.57,18.13s14.61,10,23.05,4.2,2.59-19.42,2.59-19.42c10.71,3.56,10.06,18.78,10.06,18.78C541.17,507.11,563.65,510,563.65,510c0,13.74-6.46,70.41-3.08,83.79,2.14,8.45,6.41,16.63,13.35,21.92,10.94,8.35,26.65,8,39.35,2.67,10.25-4.3,18.9-11.35,27.12-18.67,14.24-12.7,28.9-29.45,35.44-47.6,9.38-26,3.27-56.71,3.5-83.79.18-21.37,2-50.06,24.22-60.58,7.73-3.66,2.78,6.47,1.25,9.4-4,7.69-8,14.63-10.85,23.13-6.54,19.27-.17,43.23,2.4,62.72,5.65,42.76-5.25,98.57-33.6,132.48-22.53,27-63.36,48.07-99.19,40.84-12-2.41-26.78-2.83-45.92-26.78-.2-.75,4.81-5.78,5.56-6.78,2.65-3.53,5.43-6.74,7.19-10.79A19.42,19.42,0,0,0,532.08,624.16Z" />
    <path class="cls-6"
        d="M495.8,508.44a4.15,4.15,0,0,0,.9-7.41c-6.66-4.29-13.28-8.47-20.94-11a80.55,80.55,0,0,0-31.42-4,34.39,34.39,0,0,0-11.45,2.44A18.47,18.47,0,0,0,422.74,500c-.64,2.12-1.38,5.94.55,7.59,1.29,1.11,3.27.8,4.82.11,9.91-4.41,21.63-9.29,32.69-7.42,12.28,2.09,11.39,4.86,18.28,9.16a12.15,12.15,0,0,0,10.32,1.21Z" />
    <path class="cls-7"
        d="M520,631.44a17,17,0,0,1-5.48,7.61c-5.37,4.16-8.23,4.74-12.66,12.47-4,7-2.47,16.19-.94,24.06.24,1.24.07,2.66-1.14,3.23-1.81.85-4.84-.68-6.48-1.69-4-2.45-6.76-6.08-7.51-10a20.41,20.41,0,0,1,.46-8.39,47.05,47.05,0,0,1,10.25-20.09c5.22-6.08,17.55-22.74,24.51-18.26C523,621.7,521.46,627.32,520,631.44Z" />
    </g>
</svg>